<svg xmlns="http://www.w3.org/2000/svg" width="100" height="100"><g fill="#444"><path d="M62.924 94.729c-1.732-1.274-1.918-3.188-1.918-3.188l-.65-4.155H39.642l-.652 4.152c0 0-.181 1.916-1.914 3.19-1.732 1.274-3.099 2.368-1.732 2.554 1.317.178 13.74.016 14.656 0 .918.016 13.338.178 14.654 0C66.02 97.098 64.652 96.006 62.924 94.729zM26.666 61.538c5.534-.043 6.223-1.377 8.027-6.933 3.327-8.768 18.309 2.296 9.024 6.136C34.432 64.583 21.132 61.581 26.666 61.538z"/><path d="M83.41,3.756c-2.688-2.164-7.135-1.098-9.938,2.38L45.082,46.472c-2.803,3.477-2.789,2.813-0.104,4.975 c2.685,2.164,2.038,2.319,4.841-1.158l33.376-36.317C85.998,10.492,86.096,5.919,83.41,3.756z M76.109,8.584 c0,0-0.416-0.483-1.799-1.589c2.074-3.387,6.15-2.766,6.15-2.766C76.596,6.511,76.109,8.584,76.109,8.584z"/><path d="M96,17.386H83.516l-5.515,6h16v48h-88v-48h51.19l4.227-6H4c-2.209,0-4,1.791-4,4v58c0,2.209,1.791,4,4,4h92 c2.209,0,4-1.791,4-4v-58C100,19.177,98.209,17.386,96,17.386z"/></g></svg>