<svg xmlns="http://www.w3.org/2000/svg" width="48.832" height="48.832"><g fill="#444"><path d="M15.42 32.814L22.23 32.814 22.23 34.385 15.42 34.385 15.42 35.68 36.838 35.68 36.838 34.385 28.898 34.385 28.898 32.814 37.729 32.814 37.729 29.227 15.42 29.227zM9.489 11.231L41.957 11.231 41.957 24.209 44.739 24.209 44.739 8.449 6.707 8.449 6.707 17.14 9.489 17.14z"/><path d="M0 39.799h14.523V18.013H0V39.799zM7.568 38.705c-.386 0-.7-.312-.7-.699 0-.386.314-.699.7-.699.387 0 .699.312.699.699S7.955 38.705 7.568 38.705zM2.1 20.113h10.325l-.001 16.072H2.1V20.113zM38.715 25.046v15.337h10.117V25.046H38.715zM43.979 25.68c.121 0 .22.101.22.221 0 .121-.099.222-.22.222-.123 0-.223-.101-.223-.222C43.756 25.78 43.855 25.68 43.979 25.68zM42.665 26.416h2.623v.212h-2.623V26.416zM43.891 39.721c-.291 0-.524-.236-.524-.525 0-.29.233-.524.524-.524.289 0 .525.234.525.524C44.416 39.484 44.18 39.721 43.891 39.721zM47.369 37.915c-2.368.013-6.016.022-7.189.012V27.382l7.189-.001V37.915z"/></g></svg>